<?xml version="1.0" encoding="UTF-8"?><svg id="NEGATIVO" xmlns="http://www.w3.org/2000/svg" viewBox="0 0 1920 860"><defs><style>.cls-1{fill:#fff;}.cls-2{fill:#c20e1a;}</style></defs><path class="cls-1" d="m1851.85,200.673v-7.507h5.63c3.069,0,4.778,1.364,4.778,3.753,0,2.221-1.709,3.753-4.778,3.753h-5.63Zm-8.875,16.381h8.875v-9.383h3.753l6.31,9.383h10.239l-7.507-10.92c3.921-1.537,6.482-4.95,6.482-9.895,0-7.338-5.462-10.58-13.137-10.58h-15.017v31.394Zm12.968,11.432c-15.013,0-26.277-11.944-26.277-26.445v-.172c0-14.505,11.432-26.617,26.277-26.617,15.013,0,26.277,11.944,26.277,26.445v.172c0,14.501-11.432,26.617-26.277,26.617m0,3.241c16.549,0,29.686-13.649,29.686-29.858v-.172c0-16.209-12.964-29.686-29.686-29.686-16.55,0-29.69,13.649-29.69,29.858v.172c0,16.206,12.968,29.686,29.69,29.686"/><path class="cls-1" d="m428.186,29.162H70.234c-20.884,0-37.816,16.92-37.816,37.804v358.006c0,20.884,16.932,37.816,37.816,37.816h357.953c20.884,0,37.804-16.932,37.804-37.816V66.966c0-20.884-16.92-37.804-37.804-37.804"/><path class="cls-1" d="m962.676,333.866c-31.949-7.013-50.753-11.997-55.917-14.826-4.674-2.446-6.945-6.299-6.945-11.783,0-4.327,2.194-8.042,6.715-11.363,4.64-3.409,12.72-5.137,24.025-5.137,13.626,0,23.345,3.467,28.864,10.274,2.928,3.753,4.778,8.986,5.492,15.548l.191,1.712h57.943l-.195-2.102c-2.461-25.814-12.147-44.313-28.807-54.988-16.561-10.404-38.182-15.674-64.249-15.674-27.584,0-49.324,7.098-64.624,21.106-15.342,14.05-23.124,31.104-23.124,50.688,0,16.695,5.072,29.697,15.063,38.641,9.811,8.909,26.762,16.404,50.406,22.279,32.178,7.64,50.96,13.056,55.818,16.087,4.51,2.821,6.696,6.822,6.696,12.238,0,5.595-2.733,9.693-8.351,12.529-5.959,3.012-14.195,4.541-24.48,4.541-17.463,0-29.51-3.436-35.817-10.216-3.493-3.727-5.813-10.259-6.903-19.42l-.199-1.697h-58.497v1.919c0,21.748,8.046,39.895,23.907,53.937,15.797,13.996,40.468,21.09,73.334,21.09,32.216,0,56.429-6.704,71.974-19.925,15.628-13.297,23.555-30.684,23.555-51.682,0-16.03-5.561-29.591-16.546-40.315-10.954-10.442-27.546-18.331-49.331-23.46"/><path class="cls-1" d="m649.354,333.866c-31.945-7.013-50.746-11.997-55.913-14.826-4.674-2.446-6.945-6.299-6.945-11.783,0-4.33,2.194-8.046,6.715-11.363,4.64-3.409,12.72-5.137,24.026-5.137,13.626,0,23.345,3.467,28.864,10.274,2.928,3.753,4.778,8.986,5.492,15.548l.191,1.712h57.943l-.195-2.102c-2.458-25.81-12.143-44.309-28.807-54.988-16.561-10.404-38.179-15.674-64.253-15.674-27.58,0-49.32,7.098-64.62,21.106-15.342,14.046-23.124,31.104-23.124,50.688,0,16.695,5.072,29.697,15.063,38.641,9.811,8.909,26.762,16.404,50.406,22.279,32.178,7.64,50.96,13.056,55.821,16.087,4.506,2.817,6.692,6.822,6.692,12.238,0,5.592-2.729,9.693-8.347,12.529-5.962,3.012-14.199,4.541-24.48,4.541-17.463,0-29.514-3.436-35.821-10.216-3.493-3.73-5.813-10.262-6.903-19.42l-.199-1.697h-58.501v1.919c0,21.744,8.046,39.891,23.911,53.937,15.793,13.996,40.468,21.09,73.33,21.09,32.216,0,56.429-6.704,71.977-19.925,15.629-13.297,23.556-30.684,23.556-51.682,0-16.034-5.561-29.594-16.546-40.315-10.954-10.442-27.546-18.334-49.335-23.46"/><rect class="cls-1" x="746.72" y="251.414" width="58.715" height="210.806"/><rect class="cls-1" x="746.72" y="176.788" width="58.715" height="53.777"/><path class="cls-1" d="m1124.263,195.589h-57.389v57.725h-28.86v42.383h28.86v125.49c0,13.37,3.249,23.467,9.651,30.003,8.928,9.291,24.951,13.989,47.692,13.989,2.007,0,4.063-.038,6.173-.111l27.481-1.017v-44.363l-2.064.153c-1.747.13-3.528.218-5.336.283-1.819.065-3.528.092-5.156.092-14.207,0-17.608-1.812-18.411-2.588-.986-.959-2.641-4.113-2.641-14.482v-107.45h33.607v-42.383h-33.607v-57.725Z"/><rect class="cls-1" x="1735.089" y="251.414" width="58.718" height="210.806"/><rect class="cls-1" x="1735.089" y="176.788" width="58.718" height="53.777"/><path class="cls-1" d="m1679.819,271.486c-7.392-9.07-15.766-15.521-24.889-19.175-9.058-3.623-18.373-5.454-27.679-5.454-13.92,0-26.739,2.943-38.129,8.779-9.826,5.324-18.289,13.488-25.184,24.289-4.093-8.856-9.785-16.316-17.031-22.267-10.041-7.17-23.319-10.801-39.467-10.801-17.069,0-31.2,4.223-41.993,12.548-5.037,3.853-10.369,9.903-15.907,18.032v-25.646h-56.429v210.432h58.711v-126.48c0-10.912,1.395-19.179,4.139-24.545,5.003-9.41,14.638-13.981,29.449-13.981,12.586,0,20.773,4.537,25.027,13.874,2.404,5.297,3.623,14.038,3.623,25.979v125.154h58.336v-125.154c0-8.928,1.414-16.653,4.193-22.936,5.404-11.768,14.956-17.486,29.204-17.486,12.231,0,20.368,4.373,24.87,13.37,2.385,4.778,3.596,11.004,3.596,18.506v133.7h59.28l.382-132.366c0-13.454-.65-23.854-1.934-30.94-2.079-10.771-6.173-19.997-12.169-27.431"/><path class="cls-1" d="m1226.912,334.198c1.884-11.963,5.993-21.618,12.227-28.715,6.494-7.377,15.812-11.115,27.706-11.115,10.962,0,20.261,3.558,27.634,10.576,7.017,6.673,11.141,16.508,12.265,29.254h-79.832Zm122.249-47.161c-9.154-14.172-20.922-24.691-34.98-31.268-13.989-6.543-29.915-9.861-47.336-9.861-29.396,0-53.662,9.846-72.119,29.266-18.434,19.397-27.775,47.569-27.775,83.734,0,38.641,10.384,66.986,30.871,84.254,20.387,17.184,44.252,25.895,70.926,25.895,32.323,0,57.851-10.377,75.864-30.829,11.604-12.892,18.22-25.833,19.657-38.469l.245-2.137h-58.619l-.524,1.089c-2.794,5.825-6.028,10.415-9.62,13.649-6.566,5.97-15.265,8.997-25.864,8.997-10.064,0-18.766-2.503-25.883-7.453-11.302-7.686-17.562-21.193-18.633-40.166h141.535l.027-1.892c.256-17.861-.325-31.761-1.727-41.324-2.438-16.408-7.843-31.043-16.045-43.484"/><path class="cls-2" d="m311.95,137.921c-54.258,74.259-146.55,303.006-232.168,305.621-15.648,0-28.348-12.693-28.348-28.352V76.382c0-15.651,12.701-28.134,28.352-28.134h333.484c-13.385,1.976-48.598,14.868-101.319,89.673"/><path class="cls-1" d="m1877.109,612.551H42.891c-5.786,0-10.478-4.691-10.478-10.478s4.691-10.478,10.478-10.478h1834.218c5.786,0,10.478,4.691,10.478,10.478s-4.691,10.478-10.478,10.478Z"/><path class="cls-1" d="m810.607,730.39h10.952l47.21,104.337h-12.58l-12.135-27.379h-56.386l-12.284,27.379h-11.987l47.21-104.337Zm28.859,66.302l-23.531-52.686-23.679,52.686h47.21Z"/><path class="cls-1" d="m881.937,731.131h11.692v92.793h58.31v10.804h-70.002v-103.597Z"/><path class="cls-1" d="m966.291,731.131h44.103c11.84,0,21.163,3.404,27.083,9.176,4.292,4.439,6.66,9.916,6.66,16.575v.296c0,13.468-8.288,20.424-16.428,23.976,12.283,3.7,22.199,10.804,22.199,25.011v.297c0,17.759-14.947,28.267-37.591,28.267h-46.026v-103.597Zm66.006,27.379c0-10.211-8.14-16.871-22.939-16.871h-31.522v35.667h30.635c14.06,0,23.827-6.364,23.827-18.5v-.296Zm-21.756,29.155h-32.706v36.555h34.778c15.688,0,25.455-6.956,25.455-18.499v-.296c0-11.248-9.472-17.76-27.527-17.76Z"/><path class="cls-1" d="m1104.217,730.39h10.952l47.21,104.337h-12.58l-12.135-27.379h-56.387l-12.283,27.379h-11.987l47.21-104.337Zm28.859,66.302l-23.531-52.686-23.68,52.686h47.211Z"/></svg>